<?xml version="1.0" encoding="utf-8"?>
<!-- Generator: Adobe Illustrator 23.0.0, SVG Export Plug-In . SVG Version: 6.00 Build 0)  -->
<svg version="1.1" id="Layer_1" xmlns="http://www.w3.org/2000/svg" xmlns:xlink="http://www.w3.org/1999/xlink" x="0px" y="0px"
	 viewBox="0 0 1024 1024" style="enable-background:new 0 0 1024 1024;" xml:space="preserve">
<style type="text/css">
	.st0{fill:#FFFFFF;}
</style>
<title>logo</title>
<path class="st0" d="M798.11,512.39l206.32-294.69c34.48-49.24-0.75-116.92-60.87-116.92c0,0-490.34-0.57-586.75-0.63
	c-3.91,0-24.68,0.39-41.46,17.18s-17.18,37.55-17.18,41.46l0,0c0.01,32.38,26.26,58.63,58.64,58.63h72.38
	c14.69,0,27.83,10.43,29.92,25c2.39,16.03-8.66,30.96-24.69,33.35c-1.43,0.21-2.87,0.32-4.31,0.32H63.64
	C31.27,276.08,5.02,302.32,5,334.69l0,0c-0.01,32.38,26.24,58.63,58.62,58.64c0,0,0.01,0,0.01,0h280.54
	c14.69,0,27.83,10.42,29.92,25c2.39,16.02-8.66,30.95-24.68,33.34c-1.43,0.21-2.87,0.32-4.32,0.32H163.31
	c-32.38,0.01-58.63,26.26-58.63,58.64l0,0c0,32.38,26.25,58.63,58.63,58.63l0,0h28.41c14.69,0,27.83,10.43,29.92,25
	c2.39,16.03-8.66,30.96-24.69,33.35c-1.43,0.21-2.87,0.32-4.31,0.32H175c-32.38,0-58.63,26.25-58.63,58.63l0,0l0,0
	c0.03,32.36,26.27,58.58,58.63,58.58h293.82c15.23,0,28.85,10.69,31.24,25.73c2.78,16.78-8.56,32.64-25.34,35.42
	c-1.66,0.28-3.35,0.41-5.04,0.42h-92.35c-32.38,0-58.63,26.25-58.63,58.63l0,0l0,0c-0.01,32.39,26.23,58.65,58.62,58.66
	c0,0,0.01,0,0.01,0h566.23c60.12,0,95.35-67.68,60.87-116.92L798.11,512.39z M406.65,627.87h-48.93c-14.69,0-27.82-10.42-29.91-25
	c-2.4-16.02,8.65-30.95,24.67-33.35c1.43-0.21,2.88-0.32,4.33-0.32h48.93c14.69,0,27.82,10.43,29.91,25
	c2.4,16.02-8.65,30.95-24.67,33.35C409.55,627.76,408.1,627.87,406.65,627.87z"/>
<path class="st0" d="M169.18,806.71c-32.38-0.01-58.63,26.24-58.64,58.62c0,0,0,0.01,0,0.01l0,0c-0.42,32.38,25.49,58.98,57.87,59.4
	c32.38,0.42,58.98-25.49,59.4-57.87c0.01-0.51,0.01-1.02,0-1.53l0,0C227.81,832.96,201.56,806.71,169.18,806.71L169.18,806.71z"/>
</svg>
